# xmcd
#
# Track frame offsets: 
#        150
#        20884
#        29005
#        36872
#        44792
#        60844
#        68777
#        76308
#        85927
#        93373
#        100615
#        108650
#        122687
#        129806
#        143813
#        159079
#        167814
#        179008
#        186370
#        206262
#        217463
#        231358
#
# Disc length: 3729 seconds
#
# Revision: 1
# Processed by: cddbd v1.5.2PL0 Copyright (c) Steve Scherf et al.
# Submitted via: ExactAudioCopy v1.3
#
DISCID=3a0e8f16
DTITLE=Isaac Hayes - Shaft  [Varese] [Film Score]
DYEAR=1971
DGENRE=Soundtrack
TTITLE0=Theme From Shaft  [Film Version]
TTITLE1=Shaft's First Fight
TTITLE2=Reel 2 Part 2 - Cat Oughta Be Here
TTITLE3=Bumpy's Lament [Film Version]
TTITLE4=Soulsville [Film Version]
TTITLE5=Ellie's Love Theme [Film Version]
TTITLE6=Shaft's Cab Ride [Film Version] - Shaft Enters Building
TTITLE7=I Can't Get Over Losin' You
TTITLE8=Reel 4 Part 6
TTITLE9=Reel 5 Part 1
TTITLE10=A Friend's Place [Film Version]
TTITLE11=Bumpy's Blues [Film Version]
TTITLE12=Bumpy's Lament (Reprise) [Film Version]
TTITLE13=Early Sunday Morning [Film Version]
TTITLE14=Do Your Thing [Film Version]
TTITLE15=Be Yourself [Film Version]
TTITLE16=No Name Bar [Film Version]
TTITLE17=Shaft Strikes Again [Film Version] - Return Of Shaft
TTITLE18=Café Regio's [Film Version]
TTITLE19=Walk From Regio's [Film Version]
TTITLE20=Shaft's Pain
TTITLE21=Rescue - The End Theme [Film Version]
EXTD=
EXTT0=
EXTT1=
EXTT2=
EXTT3=
EXTT4=
EXTT5=
EXTT6=
EXTT7=
EXTT8=
EXTT9=
EXTT10=
EXTT11=
EXTT12=
EXTT13=
EXTT14=
EXTT15=
EXTT16=
EXTT17=
EXTT18=
EXTT19=
EXTT20=
EXTT21=
PLAYORDER=
